# xmcd
#
# Track frame offsets:
#	182
#	10485
#	20397
#	33095
#	47237
#	61295
#	72827
#	83397
#	93942
#	108505
#
# Disc length: 1580 seconds
#
# Revision: 1
# Processed by: cddbd v1.4PL0 Copyright (c) Steve Scherf et al.
# Submitted via: audiograbber 1.81.00
#
DISCID=71062a0a
DTITLE=Charley Pride - In Person
DYEAR=1900
DGENRE=Country
TTITLE0=Just Between You And Me
TTITLE1=I Know One
TTITLE2=Lovesick Blues
TTITLE3=The Image Of Me
TTITLE4=Kaw Liga
TTITLE5=Six Days On The Road
TTITLE6=Streets Of Baltimore
TTITLE7=Got Leavin' On Her Mind
TTITLE8=Crystal Chandeliers
TTITLE9=Cotton Fields
EXTD=
EXTT0=
EXTT1=
EXTT2=
EXTT3=
EXTT4=
EXTT5=
EXTT6=
EXTT7=
EXTT8=
EXTT9=
PLAYORDER=
